<?xml version="1.0" encoding="UTF-8" standalone="no"?>
<!DOCTYPE svg PUBLIC "-//W3C//DTD SVG 1.1//EN" "http://www.w3.org/Graphics/SVG/1.1/DTD/svg11.dtd">
<svg xmlns="http://www.w3.org/2000/svg" version="1.1" viewBox="0.00 0.00 426.00 408.00">
<path fill="#a2aaad" d="
  M 172.00 220.24
  C 151.33 220.36 132.50 206.77 127.43 186.63
  Q 126.05 181.13 126.02 166.75
  Q 125.95 127.76 126.03 88.76
  Q 126.07 70.80 136.02 57.97
  C 145.61 45.61 159.24 41.32 174.50 41.23
  Q 211.95 41.01 249.40 41.00
  Q 253.36 41.00 258.09 41.40
  C 261.91 41.72 266.19 41.79 269.63 42.51
  C 287.28 46.18 300.41 59.86 304.06 77.51
  Q 304.97 81.88 304.97 91.00
  Q 305.00 126.13 305.02 161.25
  Q 305.03 177.47 304.50 181.23
  C 301.97 199.17 288.17 215.45 269.87 219.10
  Q 265.23 220.03 253.58 220.02
  Q 212.79 220.00 172.00 220.24
  Z
  M 297.62 123.37
  Q 298.57 113.11 298.04 91.34
  Q 297.78 81.20 297.50 79.18
  C 295.16 62.52 279.97 49.18 263.13 48.40
  C 252.01 47.88 240.16 47.07 229.08 48.07
  Q 226.87 48.27 228.63 49.62
  C 240.14 58.41 246.84 70.05 246.89 84.75
  Q 247.02 120.13 246.99 155.41
  A 0.47 0.47 0.0 0 0 247.43 155.88
  C 258.87 156.75 272.27 156.55 282.09 149.54
  C 290.33 143.66 296.69 133.43 297.62 123.37
  Z
  M 240.89 85.38
  C 240.38 70.80 232.05 57.17 218.56 51.33
  C 212.12 48.55 204.89 48.19 197.50 48.03
  Q 183.74 47.73 172.64 48.16
  C 161.66 48.58 153.73 50.43 145.84 57.09
  C 135.54 65.81 132.91 76.59 132.93 89.75
  C 132.94 99.31 132.81 108.79 133.11 118.36
  Q 133.15 119.86 133.99 118.61
  Q 143.95 103.71 160.57 100.14
  Q 165.76 99.02 180.49 99.01
  Q 210.47 98.98 240.30 99.01
  A 0.68 0.67 -89.1 0 0 240.97 98.35
  Q 241.12 91.69 240.89 85.38
  Z
  M 202.34 211.88
  C 191.18 203.72 184.01 191.45 184.00 177.50
  Q 183.99 143.38 184.01 109.25
  Q 184.01 107.35 183.72 106.04
  A 0.91 0.89 89.9 0 0 183.06 105.37
  C 178.10 104.13 170.87 105.06 166.27 105.73
  C 149.02 108.23 133.51 121.69 133.08 140.00
  Q 132.64 158.62 133.05 177.25
  C 133.48 196.90 148.24 211.06 167.26 213.50
  Q 176.68 214.71 198.17 214.04
  Q 198.47 214.04 200.34 214.17
  Q 201.75 214.28 202.48 213.53
  Q 203.37 212.63 202.34 211.88
  Z
  M 241.00 105.48
  A 0.48 0.48 0.0 0 0 240.52 105.00
  L 190.48 105.00
  A 0.48 0.48 0.0 0 0 190.00 105.48
  L 190.00 155.52
  A 0.48 0.48 0.0 0 0 190.48 156.00
  L 240.52 156.00
  A 0.48 0.48 0.0 0 0 241.00 155.52
  L 241.00 105.48
  Z
  M 227.63 213.62
  Q 246.10 214.76 263.39 213.31
  C 283.31 211.64 298.01 195.85 298.05 175.75
  Q 298.08 161.25 298.07 146.75
  Q 298.07 145.36 297.72 143.42
  A 0.45 0.45 0.0 0 0 296.93 143.22
  C 294.74 145.95 292.74 148.92 290.26 151.17
  Q 278.61 161.71 262.51 162.51
  C 238.67 163.68 214.51 162.98 190.62 163.01
  Q 190.11 163.01 190.09 163.52
  Q 189.73 172.11 190.08 177.25
  C 191.56 198.65 206.88 212.34 227.63 213.62
  Z"
/>
<path fill="#a2aaad" d="
  M 254.33 288.27
  A 0.22 0.22 0.0 0 0 254.25 288.62
  Q 260.04 295.31 264.17 303.27
  Q 266.46 307.66 272.14 309.25
  Q 272.64 309.39 272.88 309.86
  C 273.23 310.55 273.24 311.77 273.23 312.41
  Q 273.21 313.62 271.75 313.75
  Q 264.12 314.42 256.49 313.81
  A 0.94 0.93 78.5 0 1 255.73 313.30
  C 252.57 306.92 249.97 300.51 247.66 295.59
  C 245.82 291.66 243.79 289.16 238.72 290.00
  A 2.05 2.04 85.8 0 0 237.02 291.98
  Q 236.91 298.58 237.01 306.00
  C 237.04 308.08 241.86 308.76 243.58 309.18
  Q 244.08 309.30 244.25 309.79
  Q 244.88 311.68 244.03 313.39
  A 1.17 1.15 13.2 0 1 242.99 314.02
  L 219.10 314.01
  Q 217.95 314.01 217.97 312.85
  L 218.02 309.90
  A 0.78 0.77 83.1 0 1 218.59 309.16
  L 223.91 307.73
  A 1.47 1.47 0.0 0 0 225.00 306.31
  L 225.00 265.31
  Q 225.00 264.10 223.89 263.62
  Q 222.09 262.86 220.15 263.05
  Q 218.96 263.17 218.96 261.97
  L 218.96 258.23
  Q 218.95 257.01 220.17 257.02
  C 227.45 257.08 234.65 256.93 241.97 256.37
  C 253.32 255.49 268.07 259.46 265.88 274.31
  Q 264.43 284.20 254.33 288.27
  Z
  M 237.00 264.21
  L 236.96 282.63
  A 2.39 2.39 0.0 0 0 239.35 285.02
  L 242.77 285.03
  A 11.29 11.29 0.0 0 0 254.08 273.75
  L 254.08 273.13
  A 11.29 11.29 0.0 0 0 242.81 261.83
  L 239.39 261.82
  A 2.39 2.39 0.0 0 0 237.00 264.21
  Z"
/>
<path fill="#a2aaad" d="
  M 72.43 291.57
  C 65.94 288.35 58.10 283.99 54.97 278.01
  C 50.23 268.94 56.14 259.99 65.25 257.65
  C 73.07 255.64 82.20 256.76 90.09 258.37
  A 1.00 1.00 0.0 0 1 90.89 259.34
  L 91.03 269.94
  A 1.13 1.13 0.0 0 1 89.87 271.08
  L 86.04 271.00
  A 1.78 1.77 -7.7 0 1 84.38 269.74
  Q 83.60 267.11 82.14 264.28
  C 79.41 258.95 58.41 260.83 67.42 273.06
  C 74.94 283.26 95.19 283.50 94.10 299.99
  Q 93.81 304.44 90.97 307.85
  C 83.00 317.46 65.69 315.76 54.91 312.26
  A 1.36 1.35 9.3 0 1 53.98 310.98
  L 54.02 298.15
  A 1.33 1.33 0.0 0 1 55.18 296.84
  Q 56.78 296.63 58.23 297.15
  Q 58.80 297.36 59.01 297.92
  C 60.40 301.61 61.10 305.49 64.75 307.67
  Q 73.22 312.74 80.01 306.54
  C 86.16 300.93 76.96 293.81 72.43 291.57
  Z"
/>
<path fill="#a2aaad" d="
  M 108.70 308.51
  C 93.03 293.90 98.65 264.30 119.25 257.67
  C 133.63 253.04 149.31 261.31 152.54 276.25
  Q 153.67 281.46 152.91 289.50
  C 152.08 298.28 147.90 306.04 140.43 310.81
  C 130.87 316.91 117.06 316.29 108.70 308.51
  Z
  M 137.84 300.86
  C 140.54 290.40 140.96 275.94 135.30 267.02
  Q 131.20 260.56 124.52 262.00
  C 111.74 264.75 113.28 284.37 114.53 293.73
  Q 115.20 298.74 117.55 303.18
  C 122.61 312.75 135.08 311.54 137.84 300.86
  Z"
/>
<path fill="#a2aaad" d="
  M 305.31 309.13
  C 313.50 309.61 313.53 305.15 316.52 299.58
  Q 316.84 298.98 317.51 298.98
  L 322.03 298.95
  A 1.07 1.07 0.0 0 1 323.10 300.03
  L 322.96 309.89
  A 2.09 2.09 0.0 0 1 321.48 311.85
  Q 314.51 313.95 308.00 314.68
  C 297.70 315.84 285.07 312.56 279.55 303.23
  C 270.46 287.86 275.52 267.82 291.96 259.97
  C 300.66 255.82 311.69 256.08 321.30 258.14
  A 2.03 2.02 -81.4 0 1 322.90 260.32
  L 321.75 272.16
  A 0.92 0.91 -87.2 0 1 320.84 272.99
  L 316.05 273.02
  A 1.86 1.86 0.0 0 1 314.24 271.64
  C 312.87 266.57 312.35 263.56 306.31 262.95
  Q 294.67 261.78 291.08 272.80
  Q 286.49 286.88 292.77 300.25
  Q 296.70 308.63 305.31 309.13
  Z"
/>
<path fill="#a2aaad" d="
  M 162.66 263.24
  L 159.63 262.87
  A 1.81 1.81 0.0 0 1 158.04 261.13
  L 157.97 258.67
  Q 157.92 257.01 159.58 257.01
  L 181.70 257.01
  Q 183.15 257.01 183.06 258.46
  L 182.90 261.14
  Q 182.80 262.82 181.12 262.90
  L 178.29 263.04
  Q 176.09 263.15 176.05 265.35
  Q 175.83 277.60 176.06 290.00
  C 176.17 296.00 176.82 302.14 181.38 306.13
  C 187.92 311.85 197.40 308.51 200.18 300.50
  C 202.04 295.13 201.98 287.97 201.45 281.15
  Q 200.78 272.56 201.05 263.86
  A 0.82 0.82 0.0 0 0 200.26 263.02
  L 196.27 262.85
  A 1.24 1.24 0.0 0 1 195.08 261.65
  L 194.96 258.17
  A 1.12 1.12 0.0 0 1 196.08 257.01
  L 214.23 257.00
  A 0.81 0.79 87.6 0 1 215.02 257.74
  Q 215.19 260.03 214.48 262.21
  Q 214.32 262.70 213.80 262.75
  L 210.87 263.04
  A 2.08 2.08 0.0 0 0 208.99 265.13
  Q 209.09 279.29 208.88 293.75
  C 208.63 312.29 192.28 318.67 176.88 313.27
  C 167.58 310.00 163.86 303.10 163.91 293.50
  Q 163.99 279.14 164.02 264.79
  A 1.56 1.54 -86.7 0 0 162.66 263.24
  Z"
/>
<path fill="#a2aaad" d="
  M 349.00 288.52
  L 349.00 307.52
  Q 349.00 307.97 349.45 307.98
  Q 356.15 308.13 363.00 307.99
  C 365.98 307.93 368.31 303.12 369.63 300.87
  A 1.41 1.41 0.0 0 1 371.13 300.20
  L 376.28 301.21
  A 1.11 1.10 9.0 0 1 377.17 302.42
  L 375.92 312.97
  Q 375.80 314.00 374.77 314.00
  L 331.97 314.02
  A 1.09 1.08 -87.6 0 1 330.89 312.84
  L 331.14 309.73
  A 1.04 1.03 -5.3 0 1 331.90 308.82
  L 335.30 307.90
  A 1.00 0.99 82.4 0 0 336.03 306.94
  L 335.99 263.90
  A 1.03 1.03 0.0 0 0 334.89 262.87
  L 332.18 263.03
  Q 331.01 263.10 331.00 261.93
  L 330.97 258.27
  Q 330.97 257.01 332.23 257.01
  L 372.13 257.00
  A 0.68 0.68 0.0 0 1 372.81 257.64
  L 373.51 268.61
  A 0.37 0.37 0.0 0 1 373.14 269.01
  L 367.21 269.00
  Q 366.58 269.00 366.25 268.47
  L 363.56 264.19
  A 2.60 2.58 -17.5 0 0 361.21 262.98
  Q 355.51 263.31 349.97 262.00
  A 0.79 0.79 0.0 0 0 349.00 262.77
  L 349.00 281.52
  Q 349.00 282.04 349.52 282.04
  L 358.07 282.04
  A 0.97 0.97 0.0 0 0 358.99 281.37
  L 360.49 276.92
  A 0.95 0.94 -87.1 0 1 361.17 276.30
  Q 363.71 275.72 366.30 276.13
  Q 367.01 276.24 367.01 276.96
  L 367.01 292.52
  Q 367.01 294.05 365.48 294.02
  L 362.08 293.96
  Q 360.45 293.93 360.24 292.32
  C 359.92 289.78 359.74 288.04 356.72 287.98
  Q 353.10 287.91 349.49 288.02
  Q 349.00 288.04 349.00 288.52
  Z"
/>
<path fill="#a2aaad" d="
  M 86.47 375.76
  C 89.42 373.73 89.80 370.85 91.33 367.85
  Q 91.58 367.37 92.10 367.20
  Q 94.24 366.53 96.38 367.13
  Q 97.07 367.32 97.06 368.04
  L 96.87 378.42
  A 0.75 0.74 81.0 0 1 96.37 379.11
  C 86.20 382.63 73.94 383.69 64.61 378.42
  C 53.22 371.98 50.79 356.32 55.96 344.99
  C 62.84 329.94 81.65 325.73 95.90 331.14
  Q 97.10 331.60 96.95 332.87
  L 95.75 343.14
  A 0.97 0.97 0.0 0 1 94.83 344.00
  C 92.82 344.10 89.81 344.68 89.09 341.99
  Q 88.25 338.88 86.42 336.29
  Q 86.17 335.94 85.76 335.81
  C 64.35 329.15 63.53 357.31 69.41 369.06
  C 72.09 374.42 80.63 379.79 86.47 375.76
  Z"
/>
<path fill="#a2aaad" d="
  M 118.09 338.33
  C 116.16 348.66 116.85 359.99 116.86 370.50
  Q 116.86 372.43 116.49 374.25
  A 1.45 1.45 0.0 0 0 117.75 375.97
  L 120.76 376.31
  Q 122.64 376.53 122.93 378.40
  L 123.07 379.36
  Q 123.33 381.03 121.64 381.03
  L 104.19 380.99
  Q 102.96 380.99 102.92 379.75
  Q 102.88 378.44 103.44 377.37
  Q 103.69 376.88 104.21 376.73
  L 108.19 375.58
  Q 108.75 375.41 108.78 374.83
  L 110.99 337.39
  A 1.35 1.34 6.9 0 0 109.88 335.98
  L 106.30 335.35
  A 1.57 1.57 0.0 0 1 105.01 333.82
  L 104.96 330.04
  A 1.00 1.00 0.0 0 1 105.96 329.02
  L 125.61 328.96
  Q 127.32 328.96 127.80 330.59
  L 136.61 360.75
  Q 136.84 361.54 137.06 360.75
  L 145.52 330.41
  A 2.08 2.08 0.0 0 1 147.54 328.89
  L 165.91 329.05
  A 1.07 1.07 0.0 0 1 166.97 330.13
  L 166.95 334.30
  Q 166.95 334.94 166.32 335.05
  L 160.55 336.10
  A 0.67 0.66 82.3 0 0 160.01 336.81
  Q 160.09 337.81 160.51 338.72
  Q 160.67 339.08 160.70 339.48
  Q 161.96 355.50 163.45 371.48
  Q 163.68 373.89 164.16 375.14
  Q 164.56 376.15 165.64 376.19
  Q 169.59 376.36 168.96 380.41
  A 0.74 0.73 4.0 0 1 168.23 381.04
  L 147.84 381.06
  Q 146.84 381.07 146.83 380.06
  Q 146.82 378.58 147.51 377.39
  A 1.52 1.50 -82.9 0 1 148.37 376.71
  L 151.98 375.62
  A 0.97 0.97 0.0 0 0 152.64 374.44
  Q 151.99 371.95 152.03 369.13
  C 152.12 362.21 151.20 355.36 151.09 348.50
  C 151.05 345.40 151.51 341.39 150.40 338.45
  Q 149.99 337.35 149.66 338.48
  L 137.49 380.93
  Q 137.37 381.34 137.01 381.55
  Q 133.91 383.38 132.78 380.13
  Q 127.06 363.61 121.69 346.97
  Q 120.23 342.43 118.58 338.28
  Q 118.25 337.44 118.09 338.33
  Z"
/>
<path fill="#a2aaad" d="
  M 178.02 374.48
  L 178.02 335.85
  A 0.87 0.87 0.0 0 0 177.14 334.98
  Q 175.48 335.02 173.90 334.51
  Q 173.42 334.35 173.28 333.87
  C 172.79 332.17 172.42 329.27 175.12 329.20
  Q 184.68 328.95 194.24 328.71
  Q 202.38 328.51 209.50 331.56
  C 226.33 338.76 225.24 364.22 213.43 375.19
  Q 207.27 380.90 197.75 380.95
  Q 187.38 380.99 177.00 381.16
  Q 175.25 381.19 173.56 380.82
  Q 173.03 380.70 172.96 380.16
  Q 172.48 376.31 176.41 376.16
  Q 178.02 376.09 178.02 374.48
  Z
  M 189.96 336.56
  L 189.96 374.28
  A 2.93 2.93 0.0 0 0 192.89 377.21
  L 194.68 377.21
  A 18.75 15.50 90.0 0 0 210.18 358.46
  L 210.18 352.38
  A 18.75 15.50 90.0 0 0 194.68 333.63
  L 192.89 333.63
  A 2.93 2.93 0.0 0 0 189.96 336.56
  Z"
/>
<path fill="#a2aaad" d="
  M 292.23 363.44
  A 1.48 1.47 -10.1 0 0 291.30 364.76
  L 290.90 378.78
  A 0.38 0.37 86.3 0 1 290.59 379.14
  Q 282.09 380.68 273.50 381.83
  C 258.32 383.88 247.13 373.87 245.81 359.00
  Q 244.87 348.36 251.11 339.09
  C 258.89 327.52 276.85 327.82 288.69 330.33
  A 1.58 1.57 -84.3 0 1 289.94 331.86
  L 290.01 341.01
  A 0.91 0.89 86.4 0 1 289.23 341.91
  Q 286.73 342.25 284.28 341.73
  A 1.03 1.02 84.3 0 1 283.55 341.13
  C 282.04 337.72 280.99 335.43 277.48 334.50
  C 262.65 330.56 256.83 345.73 258.23 357.50
  C 259.56 368.71 263.68 381.24 278.28 375.87
  C 281.55 374.67 281.23 367.33 280.82 364.67
  Q 280.74 364.13 280.21 364.01
  L 275.06 362.89
  Q 273.98 362.66 273.98 361.55
  L 273.97 359.25
  Q 273.97 357.97 275.25 357.97
  L 293.03 358.06
  Q 294.29 358.07 294.06 359.30
  L 293.48 362.54
  A 0.81 0.79 84.9 0 1 292.98 363.15
  L 292.23 363.44
  Z"
/>
<path fill="#a2aaad" d="
  M 345.99 334.92
  A 1.00 1.00 0.0 0 0 344.94 335.94
  Q 345.19 348.49 344.92 361.13
  C 344.60 376.16 335.61 383.97 320.64 381.90
  C 310.86 380.55 304.41 374.75 304.19 364.50
  Q 303.89 350.08 304.02 335.81
  A 0.79 0.79 0.0 0 0 303.25 335.01
  L 300.22 334.89
  Q 298.01 334.81 298.00 332.60
  L 298.00 331.24
  Q 297.99 328.97 300.26 328.97
  L 320.04 329.03
  Q 321.18 329.03 321.10 330.17
  L 320.84 333.74
  Q 320.75 334.97 319.52 334.96
  L 316.02 334.91
  A 1.00 0.99 -89.4 0 0 315.02 335.90
  Q 314.97 348.25 314.91 360.75
  C 314.89 364.99 316.06 370.72 319.14 373.76
  C 323.33 377.89 330.04 377.63 334.13 373.50
  C 337.98 369.60 338.09 364.74 338.03 358.75
  Q 337.92 347.30 338.03 335.98
  A 1.00 1.00 0.0 0 0 337.04 334.97
  L 334.00 334.93
  Q 332.09 334.91 332.02 333.00
  L 331.94 330.68
  Q 331.89 329.00 333.57 329.00
  L 348.75 329.00
  Q 350.01 328.99 350.01 330.25
  L 349.99 333.69
  Q 349.98 335.10 348.56 335.03
  L 345.99 334.92
  Z"
/>
<path fill="#a2aaad" d="
  M 372.12 335.00
  A 1.13 1.13 0.0 0 0 371.00 336.13
  L 370.98 373.79
  A 2.05 2.05 0.0 0 0 372.55 375.78
  L 377.10 376.89
  Q 377.62 377.01 377.78 377.53
  Q 378.18 378.81 377.99 380.19
  A 0.91 0.90 -85.9 0 1 377.10 380.97
  L 355.01 381.04
  Q 354.01 381.04 353.34 380.29
  Q 352.35 379.18 353.09 377.91
  C 353.94 376.45 356.39 375.94 357.86 376.08
  A 1.54 1.53 -87.3 0 0 359.54 374.55
  L 359.53 336.58
  A 1.54 1.53 -88.4 0 0 358.08 335.04
  L 354.83 334.86
  Q 353.15 334.76 353.08 333.08
  L 352.98 330.54
  Q 352.92 328.99 354.46 329.00
  L 375.95 329.03
  Q 377.12 329.03 377.07 330.20
  L 376.90 333.93
  Q 376.86 334.96 375.82 334.97
  L 372.12 335.00
  Z"
/>
</svg>
